<svg width="36" height="38" viewBox="0 0 36 38" fill="none" xmlns="http://www.w3.org/2000/svg">
<path d="M18.1375 11.6802C16.3323 11.6802 14.6011 12.4515 13.3246 13.8245C12.0482 15.1976 11.3311 17.0598 11.3311 19.0015C11.3311 20.9432 12.0482 22.8055 13.3246 24.1785C14.6011 25.5515 16.3323 26.3228 18.1375 26.3228C19.9427 26.3228 21.674 25.5515 22.9504 24.1785C24.2269 22.8055 24.944 20.9432 24.944 19.0015C24.944 17.0598 24.2269 15.1976 22.9504 13.8245C21.674 12.4515 19.9427 11.6802 18.1375 11.6802ZM18.1375 23.7563C16.9648 23.7563 15.8401 23.2551 15.0108 22.3632C14.1816 21.4712 13.7157 20.2614 13.7157 18.9999C13.7157 17.7385 14.1816 16.5287 15.0108 15.6367C15.8401 14.7447 16.9648 14.2436 18.1375 14.2436C19.3103 14.2436 20.435 14.7447 21.2643 15.6367C22.0935 16.5287 22.5594 17.7385 22.5594 18.9999C22.5594 20.2614 22.0935 21.4712 21.2643 22.3632C20.435 23.2551 19.3103 23.7563 18.1375 23.7563Z" fill="#EEF2FF"/>
<path d="M25.2133 13.1178C26.0896 13.1178 26.8001 12.3536 26.8001 11.4109C26.8001 10.4683 26.0896 9.7041 25.2133 9.7041C24.3369 9.7041 23.6265 10.4683 23.6265 11.4109C23.6265 12.3536 24.3369 13.1178 25.2133 13.1178Z" fill="#EEF2FF"/>
<path d="M30.6995 9.67565C30.3587 8.7291 29.838 7.86951 29.1706 7.15191C28.5032 6.4343 27.7039 5.87449 26.8238 5.50831C25.7939 5.09246 24.7058 4.8676 23.606 4.84331C22.1885 4.77681 21.7395 4.75781 18.1449 4.75781C14.5503 4.75781 14.0896 4.75781 12.6838 4.84331C11.5848 4.86636 10.4976 5.09126 9.46899 5.50831C8.58864 5.87406 7.7891 6.43372 7.12166 7.15138C6.45421 7.86904 5.9336 8.72885 5.59324 9.67565C5.20655 10.7834 4.99799 11.9538 4.97647 13.1368C4.91318 14.66 4.89404 15.1429 4.89404 19.011C4.89404 22.8775 4.89404 23.3699 4.97647 24.8851C4.99855 26.0695 5.2061 27.238 5.59324 28.3479C5.93456 29.2943 6.45567 30.1538 7.12328 30.8714C7.79088 31.5889 8.5903 32.1488 9.47046 32.5152C10.4971 32.9478 11.5848 33.1887 12.6868 33.2277C14.1043 33.2942 14.5532 33.3148 18.1478 33.3148C21.7424 33.3148 22.2032 33.3148 23.6089 33.2277C24.7087 33.2037 25.7966 32.9794 26.8267 32.5643C27.7066 32.1973 28.5057 31.637 29.173 30.9192C29.8403 30.2014 30.3612 29.3418 30.7024 28.3954C31.0896 27.2871 31.2971 26.1186 31.3192 24.9342C31.3825 23.4111 31.4016 22.9281 31.4016 19.0601C31.4016 15.192 31.4016 14.7011 31.3192 13.1859C31.3021 11.9862 31.0924 10.7986 30.6995 9.67565V9.67565ZM28.9066 24.768C28.8971 25.6805 28.7423 26.5844 28.4488 27.4406C28.2278 28.0564 27.8894 28.6155 27.4553 29.0821C27.0213 29.5486 26.5013 29.9123 25.9288 30.1497C25.1416 30.4639 24.3101 30.6305 23.4706 30.6421C22.0722 30.7118 21.6777 30.7292 18.0919 30.7292C14.5032 30.7292 14.1367 30.7292 12.7118 30.6421C11.8726 30.6311 11.0416 30.4645 10.255 30.1497C9.68049 29.9138 9.1584 29.5507 8.72253 29.0841C8.28665 28.6174 7.94671 28.0575 7.72468 27.4406C7.43536 26.5936 7.2806 25.7003 7.26689 24.7981C7.2036 23.2939 7.18888 22.8696 7.18888 19.0126C7.18888 15.154 7.18888 14.7597 7.26689 13.2255C7.27641 12.3135 7.43125 11.4101 7.72468 10.5544C8.17364 9.30515 9.09363 8.3219 10.255 7.84373C11.0419 7.53045 11.8728 7.36392 12.7118 7.35131C14.1116 7.28323 14.5047 7.26423 18.0919 7.26423C21.6791 7.26423 22.0471 7.26423 23.4706 7.35131C24.3102 7.36218 25.1418 7.52876 25.9288 7.84373C26.5013 8.08166 27.0212 8.44572 27.4552 8.91253C27.8892 9.37934 28.2276 9.93859 28.4488 10.5544C28.7382 11.4014 28.8929 12.2947 28.9066 13.197C28.9699 14.7027 28.9861 15.1255 28.9861 18.9841C28.9861 22.8411 28.9861 23.2559 28.9228 24.7696H28.9066V24.768Z" fill="#EEF2FF"/>
</svg>
