<svg width="37" height="38" viewBox="0 0 37 38" fill="none" xmlns="http://www.w3.org/2000/svg">
<path d="M30.2264 31.6668H6.67446C5.89366 31.6668 5.14485 31.3332 4.59274 30.7393C4.04064 30.1455 3.73047 29.34 3.73047 28.5002V9.36241C3.76349 8.54667 4.08818 7.77616 4.63674 7.21177C5.18531 6.64738 5.91535 6.33272 6.67446 6.3335H30.2264C31.0072 6.3335 31.756 6.66713 32.3081 7.26099C32.8602 7.85486 33.1704 8.66031 33.1704 9.50016V28.5002C33.1704 29.34 32.8602 30.1455 32.3081 30.7393C31.756 31.3332 31.0072 31.6668 30.2264 31.6668ZM6.67446 12.4578V28.5002H30.2264V12.4578L18.4504 20.9002L6.67446 12.4578ZM7.85206 9.50016L18.4504 17.1002L29.0488 9.50016H7.85206Z" fill="#EEF2FF"/>
</svg>
