<svg width="36" height="38" viewBox="0 0 36 38" fill="none" xmlns="http://www.w3.org/2000/svg">
<g clip-path="url(#clip0_365_191)">
<path d="M11.2282 35.6252C24.5601 35.6252 31.8531 23.7431 31.8531 13.4569C31.8531 13.1244 31.8531 12.7872 31.8398 12.4547C33.2597 11.3491 34.4851 9.98029 35.4587 8.41243C34.1324 9.04145 32.7269 9.45602 31.2878 9.64268C32.8037 8.66807 33.939 7.13461 34.4828 5.32731C33.0586 6.23485 31.4998 6.87194 29.8747 7.21068C28.7822 5.95911 27.3364 5.12999 25.7614 4.85173C24.1864 4.57347 22.5701 4.86162 21.1627 5.67153C19.7554 6.48144 18.6356 7.76792 17.9768 9.3317C17.3181 10.8955 17.1571 12.6493 17.5188 14.3214C14.6368 14.166 11.8174 13.3607 9.24334 11.9577C6.66932 10.5547 4.39821 8.58544 2.57732 6.17756C1.65292 7.89488 1.37081 9.92626 1.78828 11.8592C2.20575 13.7921 3.2915 15.4817 4.82505 16.5848C3.67588 16.5428 2.55197 16.2109 1.54397 15.6158V15.7227C1.54596 17.5217 2.12536 19.2648 3.18423 20.6574C4.24311 22.0499 5.71652 23.0065 7.35541 23.3654C6.73334 23.5498 6.09074 23.6417 5.4455 23.6386C4.99062 23.64 4.53664 23.5947 4.08979 23.5032C4.553 25.0518 5.45493 26.4058 6.66927 27.3756C7.88361 28.3453 9.34952 28.8822 10.8617 28.9111C8.29283 31.0813 5.1196 32.2584 1.85309 32.2527C1.27752 32.2553 0.702339 32.2196 0.130859 32.1458C3.44619 34.4193 7.29645 35.6265 11.2282 35.6252V35.6252Z" fill="#EEF2FF"/>
</g>
<defs>
<clipPath id="clip0_365_191">
<rect width="35.3279" height="38" fill="white" transform="translate(0.130859)"/>
</clipPath>
</defs>
</svg>
